<?xml version="1.0" encoding="utf-8"?><svg xmlns="http://www.w3.org/2000/svg" xmlns:xlink="http://www.w3.org/1999/xlink"><symbol viewBox="0 0 45.701 45.7" id="check" xmlns="http://www.w3.org/2000/svg"><path d="M20.687 38.332a5.308 5.308 0 01-7.505 0L1.554 26.704A5.306 5.306 0 119.059 19.2l6.928 6.927a1.344 1.344 0 001.896 0L36.642 7.368a5.308 5.308 0 017.505 7.504l-23.46 23.46z"/></symbol><symbol viewBox="0 0 413.348 413.348" id="close" xmlns="http://www.w3.org/2000/svg"><path d="M413.348 24.354L388.994 0l-182.32 182.32L24.354 0 0 24.354l182.32 182.32L0 388.994l24.354 24.354 182.32-182.32 182.32 182.32 24.354-24.354-182.32-182.32z"/></symbol><symbol viewBox="0 0 491.996 491.996" id="down-arrow" xmlns="http://www.w3.org/2000/svg"><path d="M484.132 124.986l-16.116-16.228c-5.072-5.068-11.82-7.86-19.032-7.86-7.208 0-13.964 2.792-19.036 7.86l-183.84 183.848L62.056 108.554c-5.064-5.068-11.82-7.856-19.028-7.856s-13.968 2.788-19.036 7.856l-16.12 16.128c-10.496 10.488-10.496 27.572 0 38.06l219.136 219.924c5.064 5.064 11.812 8.632 19.084 8.632h.084c7.212 0 13.96-3.572 19.024-8.632l218.932-219.328c5.072-5.064 7.856-12.016 7.864-19.224 0-7.212-2.792-14.068-7.864-19.128z"/></symbol><symbol viewBox="0 0 12 12" id="footer-soc-inst" xmlns="http://www.w3.org/2000/svg"><path d="M9.8 0H2.2C1 0 0 1 0 2.2v7.5C0 11 1 12 2.2 12h7.5C11 12 12 11 12 9.8V2.2C12 1 11 0 9.8 0zM6 8.6C4.6 8.6 3.4 7.4 3.4 6c0-1.4 1.2-2.6 2.6-2.6S8.6 4.6 8.6 6 7.4 8.6 6 8.6zm3.6-5.7c-.1.1-.3.1-.5 0-.1-.2-.1-.4 0-.5.1-.1.4-.1.5 0 .2.1.2.3 0 .5z"/></symbol><symbol viewBox="0 0 407.436 407.436" id="right-chevron" xmlns="http://www.w3.org/2000/svg"><path d="M112.814 0L91.566 21.178l181.946 182.54-181.946 182.54 21.248 21.178 203.055-203.718z"/></symbol><symbol viewBox="0 0 52.966 52.966" id="search" xmlns="http://www.w3.org/2000/svg"><path d="M51.704 51.273L36.845 35.82c3.79-3.801 6.138-9.041 6.138-14.82 0-11.58-9.42-21-21-21s-21 9.42-21 21 9.42 21 21 21c5.083 0 9.748-1.817 13.384-4.832l14.895 15.491a.998.998 0 001.414.028 1 1 0 00.028-1.414zM21.983 40c-10.477 0-19-8.523-19-19s8.523-19 19-19 19 8.523 19 19-8.524 19-19 19z"/></symbol><symbol viewBox="0 0 512 512" id="special-check" xmlns="http://www.w3.org/2000/svg"><path d="M504.5 75.5c-10-10-26.2-10-36.2 0L161.6 382.2 43.7 264.3c-10-10-26.2-10-36.2 0-10 10-10 26.2 0 36.2l136 136c10 10 26.2 10 36.2 0l324.8-324.8c10-10 10-26.2 0-36.2z"/></symbol></svg>