<?xml version="1.0" encoding="utf-8"?>
<!-- Generator: Adobe Illustrator 24.0.2, SVG Export Plug-In . SVG Version: 6.00 Build 0)  -->
<svg version="1.1" id="Шар_1" xmlns="http://www.w3.org/2000/svg" xmlns:xlink="http://www.w3.org/1999/xlink" x="0px" y="0px"
	 viewBox="0 0 12 12" style="enable-background:new 0 0 12 12;" xml:space="preserve">
<style type="text/css">
	.st0{fill:#FFFFFF;}
</style>
<path class="st0" d="M9.8,0H2.2C1,0,0,1,0,2.2v7.5C0,11,1,12,2.2,12h7.5C11,12,12,11,12,9.8V2.2C12,1,11,0,9.8,0z M6,8.6
	C4.6,8.6,3.4,7.4,3.4,6c0-1.4,1.2-2.6,2.6-2.6S8.6,4.6,8.6,6S7.4,8.6,6,8.6z M9.6,2.9C9.5,3,9.3,3,9.1,2.9C9,2.7,9,2.5,9.1,2.4
	c0.1-0.1,0.4-0.1,0.5,0C9.8,2.5,9.8,2.7,9.6,2.9z"/>
</svg>
