<?xml version="1.0" encoding="utf-8"?>
<!-- Generator: Adobe Illustrator 24.0.2, SVG Export Plug-In . SVG Version: 6.00 Build 0)  -->
<svg version="1.1" id="Capa_1" xmlns="http://www.w3.org/2000/svg" xmlns:xlink="http://www.w3.org/1999/xlink" x="0px" y="0px"
	 viewBox="0 0 512 512" style="enable-background:new 0 0 512 512;" xml:space="preserve">
<style type="text/css">
	.st0{fill:#FFFFFF;}
</style>
<path class="st0" d="M216.6,220.4l16-78.6c1.9-9.2-5.1-17.9-14.5-18.1c-3.4-0.1-6.9-0.1-10.3-0.1c-80.4,0-147.3,41.1-157.4,117.2
	h-5.9C19.9,240.9,0,260.8,0,285.3v21.9c0,8.3,6.7,15.1,15.1,15.1s15.1-6.7,15.1-15.1v-21.9c0-7.9,6.4-14.3,14.3-14.3h5.2
	c2.9,35.6,19.1,66.6,46.5,88.8l9.5,66.7c1.1,7.4,7.4,12.9,14.9,12.9h65.4c8.3,0,15.1-6.7,15.1-15.1v-29.7c8.2,0.2,16.5,0.1,24.4-0.2
	c6.6-0.2,12.3-4.6,14.1-11l18.3-64.6c1-3.4,0.7-7.1-0.8-10.3L216.6,220.4z M213.5,364.7c-7.6,0.1-15.7,0.1-26.1-1
	c-8.9-0.9-16.6,6.1-16.6,15v30.7h-37.3l-8.5-59.8c-0.6-4-2.7-7.6-6-10c-25.7-18.9-39.8-47.4-39.8-80.3
	c0-61.8,46.9-102.5,120.1-105.3l-13.2,65.2c-0.6,3.1-0.3,6.3,1.1,9.2l40,87.8L213.5,364.7z"/>
<path class="st0" d="M498.8,201.9l-35.1-4.5c-5.9-10.6-13.5-20.1-22.8-28.5l15.1-78.3c1.7-9-4.9-17.4-14-17.9
	c-62.6-3.2-92.5,29.2-106.2,54.8c-16.2-2.1-33.9-3.4-53.2-3.7c-7.3-0.2-13.6,4.9-15,12.1l-16.9,83.3c-0.6,3.1-0.3,6.3,1.1,9.2
	l40,87.8l-16.8,59.2c-2.8,9.8,4.8,19.5,14.9,19.2c8-0.2,15.7-0.6,23.2-1.2v31c0,8.3,6.7,15.1,15.1,15.1h65.4
	c7.5,0,13.8-5.5,14.9-12.9l8.6-59.9c23-12.8,39.7-30.1,49.8-51.6h30.1c8.3,0,15.1-6.7,15.1-15.1v-83.2
	C512,209.2,506.4,202.8,498.8,201.9z M423.1,103l-9.1,47.2c-14.6-7.7-30.5-13.1-46.4-17C380,115.4,398.6,105.2,423.1,103L423.1,103z
	 M481.9,285h-25c-6.4,0-12,4-14.2,10c-7.6,21.1-22.6,36.9-46,48.4c-4.5,2.2-7.6,6.5-8.3,11.4l-7.8,54.6h-37.3v-32.5
	c0-9-7.9-16-16.8-15c-5.4,0.6-10.9,1.1-16.7,1.6l12.6-44.4c1-3.4,0.7-7.1-0.8-10.3l-40.3-88.4l13.4-66.1
	c54.8,2.2,123.1,13.6,145.5,63.3c2.2,4.8,6.6,8.1,11.8,8.7l29.9,3.8L481.9,285L481.9,285z"/>
<path class="st0" d="M390.3,217.3h-16.9c-8.3,0-15.1,6.7-15.1,15.1s6.7,15.1,15.1,15.1h16.9c8.3,0,15.1-6.7,15.1-15.1
	S398.7,217.3,390.3,217.3z"/>
</svg>
