<?xml version="1.0" encoding="utf-8"?>
<!-- Generator: Adobe Illustrator 24.0.2, SVG Export Plug-In . SVG Version: 6.00 Build 0)  -->
<svg version="1.1" id="Capa_1" xmlns="http://www.w3.org/2000/svg" xmlns:xlink="http://www.w3.org/1999/xlink" x="0px" y="0px"
	 viewBox="0 0 432 432" style="enable-background:new 0 0 432 432;" xml:space="preserve">
<style type="text/css">
	.st0{fill:#FFFFFF;}
</style>
<g>
	<g>
		<path class="st0" d="M176,88H80c-17.7,0-32,14.3-32,32v44.2C18.8,187.6,0,223.6,0,264c0,70.7,57.3,128,128,128
			c21,0,40.8-5.2,58.3-14.2c-9.2-13.2-16.1-27.9-20.5-43.8c-11.3,6.1-24.1,10-37.9,10c-44.1,0-80-35.9-80-80
			c0-42.9,34.1-77.8,76.5-79.6l0.3-0.4h60.5l0.1-0.1C198,183.1,208,172.8,208,160v-40C208,102.3,193.7,88,176,88z M128,360
			c4.4,0,8,3.6,8,8s-3.6,8-8,8s-8-3.6-8-8S123.6,360,128,360z M128,152c-8.8,0-16-7.2-16-16s7.2-16,16-16c8.8,0,16,7.2,16,16
			S136.8,152,128,152z"/>
	</g>
</g>
<g>
	<g>
		<path class="st0" d="M304,43.7h-32c-0.1,0-0.3,0-0.4,0c0.1-1.2,0.4-2.4,0.4-3.7c0-17.6-14.4-32-32-32h-32c-9.6,0-18.2,4.4-24,11.1
			c-5.9-6.8-14.4-11.1-24-11.1h-32c-17.6,0-32,14.4-32,32c0,17.6,14.4,32,32,32h32c9.6,0,18.2-4.4,24-11.1
			c5.9,6.8,14.4,11.1,24,11.1h32c0.1,0,0.2,0,0.4,0c-0.1,1.2-0.4,2.4-0.4,3.7c0,17.6,14.4,32,32,32h32c17.6,0,32-14.4,32-32
			S321.6,43.7,304,43.7z M159.9,56h-32c-8.8,0-16-7.2-16-16s7.2-16,16-16h32c8.8,0,16,7.2,16,16C175.9,48.8,168.8,56,159.9,56z
			 M240,56h-32c-8.8,0-16-7.2-16-16s7.2-16,16-16h32c8.8,0,16,7.2,16,16C256,48.8,248.8,56,240,56z M304,91.7h-32
			c-8.8,0-16-7.2-16-16s7.2-16,16-16h32c8.8,0,16,7.2,16,16S312.8,91.7,304,91.7z"/>
	</g>
</g>
<g>
	<g>
		<path class="st0" d="M396.7,207.9C390.5,222,376.4,232,360,232h-8.5c19.6,14.6,32.5,37.7,32.5,64c0,44.1-35.9,80-80,80
			s-80-35.9-80-80c0-42.9,34-77.8,76.5-79.6l0.3-0.4h60.5l0.1-0.1C374,215.1,384,204.8,384,192v-40c0-17.7-14.3-32-32-32h-96
			c-17.7,0-32,14.3-32,32v44.2c-29.2,23.5-48,59.4-48,99.8c0,70.7,57.3,128,128,128s128-57.3,128-128
			C432,261.8,418.5,230.8,396.7,207.9z M304,152c8.8,0,16,7.2,16,16s-7.2,16-16,16c-8.8,0-16-7.2-16-16S295.2,152,304,152z M304,408
			c-4.4,0-8-3.6-8-8s3.6-8,8-8s8,3.6,8,8S308.4,408,304,408z"/>
	</g>
</g>
</svg>
