<?xml version="1.0" encoding="utf-8"?>
<!-- Generator: Adobe Illustrator 24.0.2, SVG Export Plug-In . SVG Version: 6.00 Build 0)  -->
<svg version="1.1" id="Capa_1" xmlns="http://www.w3.org/2000/svg" xmlns:xlink="http://www.w3.org/1999/xlink" x="0px" y="0px"
	 viewBox="0 0 512 512" style="enable-background:new 0 0 512 512;" xml:space="preserve">
<style type="text/css">
	.st0{fill:#FFFFFF;}
</style>
<g>
	<g>
		<g>
			<polygon class="st0" points="119.9,511 159.8,511 159.8,245.4 119.9,205.5 			"/>
			<polygon class="st0" points="198.7,511 238.6,511 238.6,324.3 198.7,284.4 			"/>
			<polygon class="st0" points="41,511 81,511 81,166.6 41,126.7 			"/>
			<polygon class="st0" points="433.2,511 473.1,511 473.1,398.3 433.2,398.4 			"/>
			<polygon class="st0" points="472.1,237.6 472.1,237.6 472.1,288 329.4,141.1 248.8,221.6 28.2,1 0,29.2 248.8,278.1 329,197.9 
				444,316.4 392.3,316.4 392.3,356.3 512,356.3 512,237.6 			"/>
			<polygon class="st0" points="354.4,511 394.3,511 394.3,408.2 354.4,365.3 			"/>
			<polygon class="st0" points="276.5,511 316.4,511 316.4,266.9 276.5,306.8 			"/>
		</g>
	</g>
</g>
</svg>
