<?xml version="1.0" encoding="utf-8"?>
<!-- Generator: Adobe Illustrator 24.0.2, SVG Export Plug-In . SVG Version: 6.00 Build 0)  -->
<svg version="1.1" id="Capa_1" xmlns="http://www.w3.org/2000/svg" xmlns:xlink="http://www.w3.org/1999/xlink" x="0px" y="0px"
	 viewBox="0 0 512 512" style="enable-background:new 0 0 512 512;" xml:space="preserve">
<style type="text/css">
	.st0{fill:#FFFFFF;}
</style>
<path class="st0" d="M145,240H75c-8.3,0-15,6.7-15,15s6.7,15,15,15h70c8.3,0,15-6.7,15-15S153.3,240,145,240z"/>
<path class="st0" d="M145,180H75c-8.3,0-15,6.7-15,15s6.7,15,15,15h70c8.3,0,15-6.7,15-15S153.3,180,145,180z"/>
<path class="st0" d="M497,342h-15v-35c0-26.8-12.5-50.8-32-66.4V55c0-30.3-24.7-55-55-55H55C24.7,0,0,24.7,0,55v220
	c0,30.3,24.7,55,55,55h257v12h-15c-8.3,0-15,6.7-15,15v140c0,8.3,6.7,15,15,15h200c8.3,0,15-6.7,15-15V357
	C512,348.7,505.3,342,497,342z M452,307v35H342v-35c0-30.3,24.7-55,55-55S452,276.7,452,307z M30,55c0-13.8,11.2-25,25-25h340
	c13.8,0,25,11.2,25,25v5H30V55z M30,90h390v30H30V90z M55,300c-13.8,0-25-11.2-25-25V150h390v75.2c-7.3-2.1-15-3.2-23-3.2
	c-44.5,0-81.1,34.4-84.7,78H55z M482,482H312V372h170V482z"/>
<path class="st0" d="M397,457c8.3,0,15-6.7,15-15v-30c0-8.3-6.7-15-15-15s-15,6.7-15,15v30C382,450.3,388.7,457,397,457z"/>
</svg>
