<?xml version="1.0" encoding="utf-8"?>
<!-- Generator: Adobe Illustrator 24.0.2, SVG Export Plug-In . SVG Version: 6.00 Build 0)  -->
<svg version="1.1" id="Capa_1" xmlns="http://www.w3.org/2000/svg" xmlns:xlink="http://www.w3.org/1999/xlink" x="0px" y="0px"
	 viewBox="0 0 512 512" style="enable-background:new 0 0 512 512;" xml:space="preserve">
<style type="text/css">
	.st0{fill:#FFFFFF;}
</style>
<g>
	<g>
		<path class="st0" d="M512,260.3v-30h-95.7v-33.6L271,119V83.3h86.6V0H241v119L95.7,196.7v33.6H0v30h18.9V482H0v30h512v-30h-18.9
			V260.3H512z M271,30h56.6v23.3H271V30z M125.7,214.7L256,145l130.3,69.7v15.7H125.7V214.7z M354.3,260.3v151.3h-30V260.3H354.3z
			 M213.7,260.3h80.7v151.3h-80.7L213.7,260.3L213.7,260.3z M183.7,260.3v151.3h-30V260.3H183.7z M123.7,411.7h-28V482H48.9V260.3
			h74.8V411.7z M386.3,482H125.7v-40.3h260.6V482z M463.1,482h-46.8v-70.3h-32V260.3h78.8V482z"/>
	</g>
</g>
</svg>
