<?xml version="1.0" encoding="utf-8"?>
<!-- Generator: Adobe Illustrator 24.0.2, SVG Export Plug-In . SVG Version: 6.00 Build 0)  -->
<svg version="1.1" id="Шар_1" xmlns="http://www.w3.org/2000/svg" xmlns:xlink="http://www.w3.org/1999/xlink" x="0px" y="0px"
	 viewBox="0 0 480 480" style="enable-background:new 0 0 480 480;" xml:space="preserve">
<style type="text/css">
	.st0{fill:#005285;}
</style>
<path class="st0" d="M447.7,0h-272c-13.3,0-24,10.7-24,24v128h16V24c0-4.4,3.6-8,8-8h208v56c0,3.2,1.9,6.2,4.9,7.4s6.4,0.6,8.7-1.7
	l10.3-10.3L418,77.7c2.3,2.3,5.7,3,8.7,1.7c3-1.2,4.9-4.2,4.9-7.4V16h16c4.4,0,8,3.6,8,8v384c0,4.4-3.6,8-8,8h-168v16h168
	c13.3,0,24-10.7,24-24V24C471.7,10.7,460.9,0,447.7,0z M415.7,52.7l-2.3-2.3c-3.1-3.1-8.2-3.1-11.3,0l-2.3,2.3V16h16V52.7z"/>
<path class="st0" d="M199.7,128h176v16h-176V128z"/>
<path class="st0" d="M391.7,128h32v16h-32V128z"/>
<path class="st0" d="M199.7,160h224v16h-224V160z"/>
<path class="st0" d="M279.7,80h64v16h-64V80z"/>
<path class="st0" d="M295.7,48h32v16h-32V48z"/>
<path class="st0" d="M311.7,312c17.7,0,32-14.3,32-32s-14.3-32-32-32s-32,14.3-32,32S294,312,311.7,312z M311.7,264
	c8.8,0,16,7.2,16,16s-7.2,16-16,16s-16-7.2-16-16S302.8,264,311.7,264z"/>
<path class="st0" d="M279.7,376c0,2.9,1.6,5.7,4.2,7.1s5.8,1.2,8.2-0.4l19.6-13.1l19.6,13c2.5,1.6,5.6,1.8,8.2,0.4s4.2-4.1,4.2-7
	v-50.1c20.1-14,28.8-39.4,21.4-62.7c-7.3-23.3-29-39.2-53.4-39.2s-46.1,15.9-53.4,39.2c-7.3,23.3,1.4,48.7,21.4,62.7V376z
	 M327.7,361l-11.6-7.7c-2.7-1.8-6.2-1.8-8.9,0l-11.6,7.7v-27.4c10.4,3.1,21.6,3.1,32,0V361z M271.7,280c0-22.1,17.9-40,40-40
	s40,17.9,40,40s-17.9,40-40,40C289.6,320,271.7,302.1,271.7,280z"/>
<path class="st0" d="M222.4,382.6l-46.7-12.7v-12.1c15-10.4,23.9-27.5,24-45.8v-15.1c2-0.9,3.3-1.6,3.6-1.7c2.7-1.4,4.4-4.1,4.4-7.2
	v-48l42.9-16.5c3.1-1.2,5.1-4.2,5.1-7.5s-2-6.3-5.1-7.5l-104-40c-1.8-0.7-3.9-0.7-5.7,0l-104,40c-3.1,1.2-5.1,4.1-5.1,7.4v36.7
	L10,274.3l11.3,11.3l10.3-10.3V288h16v-12.7L58,285.7l11.3-11.3l-21.7-21.7v-25l32,12.4v48c0,3,1.7,5.8,4.4,7.2
	c0.3,0.1,1.5,0.8,3.6,1.7V312c-0.1,18.3,8.9,35.5,24,45.8v12.1l-46.8,12.7c-24.3,6.7-41.2,28.8-41.2,54V472c0,4.4,3.6,8,8,8h224
	c4.4,0,8-3.6,8-8v-35.4C263.6,411.4,246.7,389.3,222.4,382.6z M127.7,376v-10.4c10.4,3.2,21.6,3.2,32,0V376c0,2.3,1,4.5,2.8,5.9
	l-18.8,15.7L124.9,382C126.6,380.5,127.6,378.3,127.7,376z M143.7,184.6l81.7,31.4l-81.7,31.4L61.9,216L143.7,184.6z M140.8,263.5
	c1.8,0.7,3.9,0.7,5.7,0l45.1-17.4v36.8c-15.1,7.3-31.3,11.7-48,13.1c-16.7-1.4-32.9-5.9-48-13.1v-36.8L140.8,263.5z M103.7,312v-8.6
	c12.8,5,26.3,7.9,40,8.6c13.7-0.6,27.2-3.5,40-8.6v8.6c0,14.3-7.7,27.5-20.1,34.6s-27.6,7.1-40-0.1c-3-1.7-5.8-3.8-8.2-6.3
	C107.8,332.8,103.6,322.6,103.7,312z M247.7,464h-24v-32h-16v32h-128v-32h-16v32h-24v-27.4c0.1-18,12.1-33.8,29.5-38.6l37.7-10.3
	l31.7,26.4c3,2.5,7.3,2.5,10.2,0l31.7-26.4l37.7,10.3c17.4,4.8,29.4,20.6,29.5,38.6V464z"/>
</svg>
