<?xml version="1.0" encoding="utf-8"?>
<!-- Generator: Adobe Illustrator 24.0.2, SVG Export Plug-In . SVG Version: 6.00 Build 0)  -->
<svg version="1.1" id="Capa_1" xmlns="http://www.w3.org/2000/svg" xmlns:xlink="http://www.w3.org/1999/xlink" x="0px" y="0px"
	 viewBox="0 0 512 512" style="enable-background:new 0 0 512 512;" xml:space="preserve">
<style type="text/css">
	.st0{fill:#1E5386;}
</style>
<g>
	<path class="st0" d="M256,444c22.1,0,40-17.9,40-40v-8c0-22.1-17.9-40-40-40s-40,17.9-40,40v8C216,426.1,233.9,444,256,444z
		 M232,396c0-13.2,10.8-24,24-24c13.2,0,24,10.8,24,24v8c0,13.2-10.8,24-24,24s-24-10.8-24-24V396z"/>
	<path class="st0" d="M288.1,444.3h-6.8c-2.8,0-5.4,1.4-6.8,3.8c-4.7,7.6-11.4,11.9-18.5,11.9s-13.8-4.3-18.5-11.9
		c-1.5-2.4-4-3.8-6.8-3.8h-6.8c-18,0-31.9,17.1-31.9,31.7v17.3c0,8.1,6.6,14.7,14.7,14.7h98.7c8.1,0,14.6-6.6,14.6-14.6V476
		c0-7-3.2-14.8-8.7-20.8C305.1,448.1,296.8,444.3,288.1,444.3z M304,492h-96v-16c0-5.4,6.2-15.7,15.9-15.7h2.6
		c7.6,10.1,18.1,15.7,29.5,15.7s21.9-5.7,29.5-15.7h2.6c9.7,0,15.9,10.3,15.9,15.7L304,492L304,492z"/>
	<path class="st0" d="M256,92c22.1,0,40-17.9,40-40v-8c0-22.1-17.9-40-40-40s-40,17.9-40,40v8C216,74.1,233.9,92,256,92z M232,44
		c0-13.2,10.8-24,24-24c13.2,0,24,10.8,24,24v8c0,13.2-10.8,24-24,24s-24-10.8-24-24V44z"/>
	<path class="st0" d="M288.1,92.3h-6.8c-2.8,0-5.4,1.4-6.8,3.8c-4.7,7.6-11.4,11.9-18.5,11.9s-13.8-4.3-18.5-11.9
		c-1.5-2.4-4-3.8-6.8-3.8h-6.8c-18,0-31.9,17.1-31.9,31.7v17.3c0,8.1,6.6,14.7,14.7,14.7h98.7c8.1,0,14.6-6.6,14.6-14.6V124
		c0-7-3.2-14.8-8.7-20.8C305.1,96.1,296.8,92.3,288.1,92.3z M304,140h-96v-16c0-5.4,6.2-15.7,15.9-15.7h2.6
		c7.6,10.1,18.1,15.7,29.5,15.7s21.9-5.7,29.5-15.7h2.6c9.7,0,15.9,10.3,15.9,15.7L304,140L304,140z"/>
	<path class="st0" d="M408,220v8c0,22.1,17.9,40,40,40s40-17.9,40-40v-8c0-22.1-17.9-40-40-40S408,197.9,408,220z M424,220
		c0-13.2,10.8-24,24-24s24,10.8,24,24v8c0,13.2-10.8,24-24,24s-24-10.8-24-24V220z"/>
	<path class="st0" d="M503.3,279.2c-6.3-7-14.5-10.9-23.3-10.9h-6.8c-2.8,0-5.4,1.4-6.8,3.8c-4.7,7.6-11.4,11.9-18.5,11.9
		s-13.8-4.3-18.5-11.9c-1.5-2.4-4-3.8-6.8-3.8h-6.8c-18,0-31.9,17.1-31.9,31.7v17.3c0,8.1,6.6,14.7,14.7,14.7h98.7
		c8.1,0,14.6-6.6,14.6-14.6V300C512,293,508.8,285.2,503.3,279.2z M496,316h-96v-16c0-5.4,6.2-15.7,15.9-15.7h2.6
		c7.6,10.1,18.1,15.7,29.5,15.7s21.9-5.7,29.5-15.7h2.6c9.7,0,15.9,10.3,15.9,15.7L496,316L496,316z"/>
	<path class="st0" d="M64,268c22.1,0,40-17.9,40-40v-8c0-22.1-17.9-40-40-40s-40,17.9-40,40v8C24,250.1,41.9,268,64,268z M40,220
		c0-13.2,10.8-24,24-24s24,10.8,24,24v8c0,13.2-10.8,24-24,24s-24-10.8-24-24V220z"/>
	<path class="st0" d="M128,317.4V300c0-7-3.2-14.8-8.7-20.8c-6.3-7-14.5-10.9-23.3-10.9h-6.8c-2.8,0-5.4,1.4-6.8,3.8
		C77.8,279.7,71.1,284,64,284s-13.8-4.3-18.5-11.9c-1.5-2.4-4-3.8-6.8-3.8h-6.8C13.9,268.3,0,285.3,0,300v17.3
		c0,8.1,6.6,14.7,14.7,14.7h98.7C121.4,332,128,325.4,128,317.4z M112,316H16v-16c0-5.4,6.2-15.7,15.9-15.7h2.6
		C42.1,294.3,52.6,300,64,300s21.9-5.7,29.5-15.7h2.6c9.7,0,15.9,10.3,15.9,15.7L112,316L112,316z"/>
	<path class="st0" d="M180.6,436.7c-39.4-16.8-72.5-46.8-93.1-84.5c-2.1-3.9-7-5.3-10.9-3.2s-5.3,7-3.2,10.9
		c22.4,40.8,58.2,73.3,100.9,91.5c1,0.4,2.1,0.6,3.1,0.6c3.1,0,6.1-1.8,7.4-4.9C186.6,443.1,184.7,438.4,180.6,436.7z"/>
	<path class="st0" d="M435.3,349c-3.9-2.1-8.7-0.7-10.9,3.2c-20.6,37.6-53.7,67.7-93.1,84.5c-4.1,1.7-6,6.4-4.2,10.5
		c1.3,3,4.3,4.9,7.4,4.9c1,0,2.1-0.2,3.1-0.6c42.7-18.2,78.5-50.7,100.9-91.5C440.6,356,439.2,351.1,435.3,349z"/>
	<path class="st0" d="M317.5,78c42.6,14.4,79.1,43.6,102.6,82.1c1.5,2.5,4.1,3.8,6.8,3.8c1.4,0,2.9-0.4,4.2-1.2
		c3.8-2.3,5-7.2,2.7-11c-25.5-41.8-64.9-73.4-111.1-88.9c-4.2-1.4-8.7,0.8-10.1,5C311,72.1,313.3,76.6,317.5,78z"/>
	<path class="st0" d="M81,162.8c1.3,0.8,2.7,1.2,4.2,1.2c2.7,0,5.3-1.4,6.8-3.8c23.5-38.6,60-67.7,102.6-82.1c4.2-1.4,6.4-6,5-10.1
		c-1.4-4.2-6-6.4-10.1-5c-46.2,15.6-85.7,47.2-111.1,89C76,155.6,77.2,160.5,81,162.8z"/>
</g>
</svg>
