<?xml version="1.0" encoding="utf-8"?>
<!-- Generator: Adobe Illustrator 24.0.2, SVG Export Plug-In . SVG Version: 6.00 Build 0)  -->
<svg version="1.1" id="Layer_1" xmlns="http://www.w3.org/2000/svg" xmlns:xlink="http://www.w3.org/1999/xlink" x="0px" y="0px"
	 viewBox="0 0 512 512" style="enable-background:new 0 0 512 512;" xml:space="preserve">
<style type="text/css">
	.st0{fill:#005185;}
</style>
<path class="st0" d="M256.1,10h-0.4c-124.9,0.1-226.1,101.4-226,226.3c0,0,0,0,0,0c0,3.3,2.7,6,6,6c2.7,0,5.1-1.8,5.8-4.5
	c1.6-6,7.3-23.3,14.4-30.9c10-9.3,22.1-14.3,35.2-14.1c12.9,0,25.4,5,34.6,14.1c9.3,9.9,14.2,22,14.2,35c0,3.3,2.7,6,6,6s6-2.7,6-6
	l0,0c0-12.9,4.9-25,14.2-34.9c9.9-9.3,22-14.2,34.9-14.2c13-0.1,25.6,5,34.8,14.1c9.3,9.9,14.2,22,14.2,35v162.3
	c0,23.1-18.7,41.8-41.8,41.8s-41.8-18.7-41.8-41.8v-19.7c0-3.3-2.7-6-6-6s-6,2.7-6,6v19.7c0,29.7,24.1,53.8,53.8,53.8
	c29.7,0,53.8-24.1,53.8-53.8V241.8c0-12.9,4.9-25,14.2-34.9c9.9-9.3,22-14.2,34.9-14.2h0.2c12.9,0,25.4,5,34.6,14.1
	c9.3,9.9,14.2,22,14.2,35c0,3.3,2.7,6,6,6s6-2.7,6-6c0-12.9,4.9-25,14.2-34.9c9.9-9.3,22-14.2,34.9-14.2h0.2
	c12.9,0,25.4,5,34.6,14.1c7.1,7.6,12.8,24.9,14.4,31c0.8,3.2,4.1,5.1,7.3,4.3c2.6-0.7,4.5-3.1,4.5-5.8V236
	C482.2,111.2,381,10,256.1,10L256.1,10z M464.7,198.5c-0.1-0.1-0.1-0.1-0.2-0.2c-11.5-11.3-26.9-17.7-43.1-17.6h-0.3
	c-16.1,0-31.1,6.1-43.3,17.5c-0.1,0.1-0.2,0.2-0.3,0.3c-4.7,4.9-8.6,10.6-11.5,16.7c-3-6.1-6.9-11.8-11.5-16.7
	c-0.1-0.1-0.1-0.1-0.2-0.2c-11.5-11.3-26.9-17.7-43.1-17.6h-0.3c-16.1,0-31.1,6.1-43.3,17.5c-0.1,0.1-0.2,0.2-0.3,0.3
	c-4.7,4.9-8.6,10.6-11.5,16.7c-3-6.1-6.9-11.8-11.5-16.7c-0.1-0.1-0.1-0.1-0.2-0.2c-11.5-11.3-26.9-17.7-43.1-17.6h-0.3
	c-16.1,0-31.1,6.1-43.3,17.5c-0.1,0.1-0.2,0.2-0.3,0.3c-4.7,4.9-8.6,10.6-11.5,16.7c-3-6.1-6.9-11.8-11.5-16.7
	c-0.1-0.1-0.1-0.1-0.2-0.2c-11.5-11.3-26.9-17.7-43.1-17.6h-0.3c-16.1,0-31.1,6.1-43.3,17.5c-0.1,0.1-0.2,0.2-0.3,0.3
	c-1,1.1-2,2.2-2.8,3.4C61.2,98.3,150.7,22.1,255.7,22h0.3c0,0,0.1,0,0.1,0c105.1,0,194.6,76.2,211.4,179.9
	C466.7,200.7,465.7,199.6,464.7,198.5L464.7,198.5z"/>
<path class="st0" d="M478.9,312.8l-88.1-43.2c-1.7-0.8-3.6-0.8-5.3,0l-88.1,43.1c-2.1,1-3.4,3.1-3.4,5.4v82.5
	c0,9.2,2.5,19.4,7.2,29.6c6.1,13,15.1,24.3,24.8,30.9l58.7,40c2,1.4,4.7,1.4,6.8,0l58.7-40c17.9-12.2,32-38.8,32-60.4v-82.4
	C482.3,315.8,481,313.8,478.9,312.8L478.9,312.8z M470.3,400.5c0,17.5-12.2,40.7-26.7,50.5l-55.4,37.7L332.8,451
	c-7.9-5.4-15.5-14.9-20.6-26c-3.9-8.5-6.1-17.2-6.1-24.5v-78.7l82.1-40.2l82.1,40.3L470.3,400.5z"/>
<path class="st0" d="M355.1,378.6c-2.4-2.3-6.2-2.2-8.5,0.2c-2.3,2.4-2.2,6.1,0.1,8.4l26.6,26c2.3,2.3,6,2.3,8.4,0l47.9-46.8
	c2.4-2.3,2.4-6.1,0.1-8.5c-2.3-2.3-6.1-2.4-8.4-0.1l-43.8,42.7L355.1,378.6z"/>
</svg>
